<svg width="581" height="635" viewBox="0 0 581 635" fill="none" xmlns="http://www.w3.org/2000/svg">
<g id="map-kalinga 1" clip-path="url(#clip0)">
<g id="Luzon">
<g id="Layer 3">
<path id="Vector" d="M170.003 30.1543H194.292C194.292 30.1543 222.317 63.8181 249.073 76.9095C275.829 90.001 302.551 159.822 305.705 206.577C308.859 253.333 324.475 354.809 289.265 434.362C254.055 513.915 229.167 534.511 229.167 534.511L162.646 609.262C162.646 609.262 149.683 635.41 118.429 609.262C87.1745 583.113 82.1923 571.892 82.1923 571.892C82.1923 571.892 75.9645 532.641 75.9645 529.501C75.9645 526.36 67.3956 482.745 78.5306 461.55C89.6656 440.354 76.1145 432.25 78.5306 430.379C80.9467 428.509 114.577 336.245 114.577 336.245C114.577 336.245 120.879 296.348 124.887 278.892C128.895 261.437 136.374 251.226 120.182 224.229C103.989 197.232 127.499 165.433 143.766 147.354C160.033 129.275 138.865 68.8053 138.865 68.8053L149.452 45.3122L170.003 30.1543Z" stroke="#444444" stroke-width="2" stroke-miterlimit="10" stroke-dasharray="15 15"/>
</g>
<g id="edge">
<path id="Vector_2" d="M499.993 574.051L491.344 585.595V593.676L456.745 621.383L454.438 634.659L442.329 632.351L445.212 626.578L450.979 624.269L463.665 604.644L462.511 602.912L471.161 593.676L474.621 585.018L456.745 588.481C456.745 588.481 453.285 596.563 455.015 601.18C456.745 605.798 433.103 614.457 433.103 614.457C433.103 614.457 435.409 620.229 404.27 621.96L384.088 634.659L16.7664 632.351C20.0079 628.478 23.6842 624.991 27.7226 621.96C28.8413 621.129 29.2795 620.864 30.0292 620.229C30.6404 619.709 36.303 614.595 36.9489 606.953C37.3641 601.994 35.4496 598.56 31.7591 591.945C28.4203 585.959 24.0148 580.47 23.1095 580.977C22.2041 581.485 25.145 587.408 24.2627 587.904C23.5246 588.32 20.6011 584.689 16.7664 579.246C18.9807 572.365 18.0754 568.076 16.7664 565.392C15.3651 562.506 13.5026 561.496 12.7299 558.466C11.7323 554.552 13.4218 550.725 15.0364 548.076C12.9221 540.572 10.8077 533.068 8.69338 525.564L10.4233 518.637V508.824L5.81016 507.093V502.475L0.0437317 499.011H6.96345L9.27002 496.703C8.88367 494.78 8.50308 492.852 8.11673 490.93C11.2479 491.242 13.8832 489.632 14.4598 487.467C14.7183 486.281 14.5118 485.041 13.8832 484.004C14.5463 482.988 17.8447 477.706 16.1897 471.305C15.5665 468.939 14.3792 466.76 12.7299 464.955C13.7894 464.267 14.5985 463.255 15.0364 462.069C16.0398 459.021 13.3527 456.528 12.7299 453.411C12.2397 450.946 12.8394 447.061 18.4963 441.289C23.8531 437.67 28.3751 432.947 31.7591 427.435C32.4165 426.356 34.2156 423.285 36.3722 417.045C38.1829 411.798 41.2218 402.776 41.562 390.493C41.8341 380.48 40.2706 370.503 36.9489 361.055L36.3722 354.128C35.9805 353.607 35.4398 353.218 34.8219 353.011C34.2039 352.805 33.538 352.792 32.9124 352.973C32.9124 352.973 35.219 348.933 35.7956 348.933C36.3722 348.933 34.6423 340.852 34.6423 340.852L39.2555 333.348L35.7956 332.771C35.7956 332.771 33.489 322.958 38.1022 320.649C42.7153 318.34 47.9051 306.218 46.7518 302.178C45.5985 298.137 32.3357 279.089 32.3357 279.089L35.7956 277.934L34.6423 275.048L21.3795 273.316L13.8832 264.081C13.8832 264.081 16.1897 241.569 21.3795 237.528C26.5693 233.488 34.6423 229.447 34.6423 229.447C34.6423 229.447 39.8321 221.943 39.8321 220.212C39.8321 218.48 29.4525 206.935 41.562 201.163H46.7518L40.9854 191.35C40.9854 191.35 43.292 185.578 42.1387 182.115C40.9854 178.651 38.1022 178.651 38.1022 178.651C38.1022 178.651 43.8686 170.57 46.7518 169.993C49.635 169.416 49.635 163.643 49.635 163.643L56.5547 156.139L49.635 149.79L51.9416 146.327L48.4817 135.937C48.4817 135.937 61.7445 127.278 61.1679 108.807C61.1679 108.807 72.7007 100.726 79.6205 70.7101C86.5402 40.6944 72.7007 41.2716 72.7007 41.2716V34.3449L90.5767 23.3776C90.5767 23.3776 109.606 30.8816 114.219 28.5727C118.832 26.2638 130.365 16.4509 130.365 16.4509L124.599 0.288612H151.701L164.964 17.0282L173.613 19.3371C173.613 19.3371 183.416 6.06087 187.453 4.90642C191.489 3.75197 231.854 7.79254 231.854 7.79254C231.854 7.79254 328.154 63.2062 336.803 64.9379C345.453 66.6695 391.008 92.0675 415.803 92.0675C440.599 92.0675 449.249 78.7913 449.249 78.7913C449.249 78.7913 468.854 69.5557 470.008 59.7428C471.161 49.93 477.504 40.1172 477.504 40.1172L475.198 32.6132C475.198 32.6132 487.884 33.1905 493.65 29.1499L500.57 36.0766C502.876 38.3855 504.03 45.3122 504.03 45.3122C504.03 45.3122 509.219 58.0112 521.906 66.0923C521.906 66.0923 532.862 92.6447 513.833 104.766C494.803 116.888 493.65 127.278 493.65 127.278C493.65 127.278 482.117 129.01 482.117 138.823C482.117 148.636 487.884 158.448 487.884 158.448C487.884 158.448 483.847 189.619 479.811 198.277C475.774 206.935 475.774 217.903 482.117 234.065C488.46 250.227 485 254.268 486.154 261.772C486.154 261.772 486.73 281.397 499.417 295.251C499.417 295.251 502.3 300.446 502.876 305.641C503.453 310.836 505.76 318.34 517.292 319.494C528.825 320.649 530.555 312.568 531.709 316.031C532.862 319.494 544.395 320.072 544.395 320.072C544.395 320.072 550.161 326.998 551.314 336.234L553.621 344.315L546.701 335.657C546.701 335.657 547.278 350.087 548.431 354.705C548.431 354.705 534.592 365.672 551.314 372.022C551.314 372.022 557.081 380.68 573.227 366.25C589.373 351.819 574.38 400.306 574.38 400.306L564.001 398.574L559.387 412.428C559.387 412.428 557.658 415.891 561.117 417.045C564.577 418.2 549.585 449.947 549.585 449.947L551.891 454.565L520.752 501.32C520.752 501.32 516.139 525.564 503.453 524.987C503.453 524.987 498.84 542.303 491.344 542.303L491.92 548.653L497.687 554.425V562.506C497.687 563.083 488.46 568.856 488.46 568.856C488.46 568.856 485 576.36 487.884 577.514" stroke="#252525" stroke-width="2" stroke-miterlimit="10"/>
</g>
<g id="Kalinga">
<path id="Vector_3" d="M36.724 602.866L54.8248 604.066L56.5548 601.758V598.871L64.0511 595.985L67.511 598.294C67.511 598.294 75.3187 596.915 81.0967 601.134C81.5227 601.441 81.9291 601.775 82.3134 602.133C82.5729 602.381 82.8324 602.635 83.0803 602.912C83.0803 602.912 89.4234 603.489 90.0001 604.066C90.5767 604.644 94.6132 604.066 94.6132 604.066C94.6132 604.066 102.686 609.839 106.146 606.953C109.606 604.066 117.102 601.758 117.102 601.758L128.059 603.489L131.518 601.758C131.518 601.758 133.248 604.066 138.438 608.684C143.628 613.302 148.241 613.879 148.241 613.879C148.241 613.879 151.124 620.229 151.701 623.115C151.77 623.455 152.399 625.251 153.119 627.236C154.129 630.036 155.311 633.222 155.311 633.222" stroke="#252525" stroke-width="2" stroke-miterlimit="10"/>
<path id="Vector_4" d="M231.854 634.66C231.854 634.66 226.088 629.464 219.168 627.733C212.248 626.001 209.942 622.538 209.942 622.538C209.942 622.538 200.139 619.652 197.256 619.074C194.372 618.497 174.767 618.497 174.767 618.497C174.767 618.497 169 615.611 167.27 618.497C165.54 621.383 163.234 623.692 160.927 623.115C158.621 622.538 152.854 627.156 152.854 627.156" stroke="#252525" stroke-width="2" stroke-miterlimit="10"/>
<path id="Vector_5" d="M263.327 633.897L254.343 598.871L280.292 579.823V548.076C280.292 548.076 271.066 541.726 272.219 538.263C273.373 534.799 286.059 496.125 286.059 496.125L320.081 497.28L369.672 550.962L448.095 526.141L412.92 570.587L341.797 634.371" stroke="#252525" stroke-width="2" stroke-miterlimit="10"/>
<path id="Vector_6" d="M119.616 602.156L119.409 589.059C119.409 589.059 126.329 583.286 129.212 575.205C132.095 567.124 134.402 570.587 134.402 570.587C134.402 570.587 142.475 573.474 145.358 565.392C148.241 557.311 152.278 555.002 152.854 546.921C153.2 541.925 153.2 536.91 152.854 531.913L159.197 507.093C159.197 507.093 159.774 497.857 157.467 496.125C156.01 495.041 154.467 494.075 152.854 493.239V482.272C152.854 482.272 150.548 473.036 152.854 470.727C155.161 468.419 163.234 461.492 163.234 461.492L158.684 459.01L150.548 454.565L151.124 441.289L128.635 421.086C128.635 421.086 125.175 427.436 121.139 428.013C117.102 428.59 99.803 430.899 99.803 430.899C99.803 430.899 92.8833 433.208 93.4599 440.134C94.0366 447.061 90.0001 456.297 90.0001 456.874C90.0001 457.451 89.4234 467.841 91.73 470.727C94.0366 473.614 84.2336 479.963 83.657 481.117C83.0803 482.272 80.7738 489.776 79.6205 492.085C78.4672 494.394 57.708 520.946 57.708 520.946C57.708 520.946 49.635 523.832 49.635 526.718C49.635 529.604 49.635 539.417 47.9051 540.572C46.1752 541.726 62.3212 585.595 62.8978 590.213C63.4745 594.831 64.0511 595.985 64.0511 595.985" stroke="#252525" stroke-width="2" stroke-miterlimit="10"/>
<path id="Vector_7" d="M158.621 459.183L164.387 450.525L168.423 442.443C168.423 442.443 174.19 436.094 174.19 430.322C174.19 424.549 179.956 425.127 185.723 418.2C191.489 411.273 191.489 407.81 203.599 405.501C215.708 403.192 218.591 400.306 224.358 402.038C230.124 403.769 241.08 404.346 241.08 404.346C241.08 404.346 249.73 403.769 252.037 398.574C254.343 393.379 284.329 384.144 285.482 383.566C286.635 382.989 294.708 388.184 310.278 381.257L325.847 374.331C325.847 374.331 333.92 382.412 330.46 397.42C327 412.428 327.577 418.777 327 422.818C326.424 426.858 322.964 430.899 318.351 430.322C313.737 429.744 316.044 433.785 313.737 440.712C311.431 447.638 305.664 449.947 299.321 450.525C292.978 451.102 290.672 446.484 283.752 449.37C276.832 452.256 276.256 459.76 271.066 458.028C265.876 456.297 267.606 467.841 262.993 466.11C262.993 466.11 265.299 473.036 264.146 475.345C262.993 477.654 259.533 481.117 257.226 484.581C254.92 488.044 254.343 490.353 254.343 490.353L235.314 497.857C235.314 497.857 222.051 496.125 218.591 497.857C215.132 499.589 158.834 508.536 158.834 508.536" stroke="#252525" stroke-width="2" stroke-miterlimit="10"/>
<path id="Vector_8" d="M286.059 496.125V480.54L266.493 463.045" stroke="#252525" stroke-width="2" stroke-miterlimit="10"/>
<path id="Vector_9" d="M328.73 355.86C328.73 374.908 325.847 374.331 325.847 374.331" stroke="#252525" stroke-width="2" stroke-miterlimit="10"/>
<path id="Vector_10" d="M128.635 421.086L132.672 413.005L130.365 399.151C130.365 399.151 122.869 396.265 127.482 380.68C130.613 370.1 139.857 365.372 145.473 363.427C146.939 362.906 148.443 362.499 149.971 362.209H158.621C158.621 362.209 167.27 354.705 162.08 350.087" stroke="#252525" stroke-width="2" stroke-miterlimit="10"/>
<path id="Vector_11" d="M145.358 363.363V359.323C145.358 359.323 139.591 354.128 130.365 359.323C126.94 362.515 124.023 366.214 121.715 370.29C118.256 376.64 115.372 367.981 115.372 367.981C115.372 367.981 100.956 363.941 100.38 360.477C99.803 357.014 100.38 344.892 100.38 344.892L93.4599 342.583C93.4599 342.583 70.3942 334.502 68.6643 330.462C66.9343 326.421 62.3212 316.031 62.8978 316.031C63.4745 316.031 79.0438 298.137 80.1971 297.56C81.3504 296.983 79.6205 286.015 79.6205 286.015C79.6205 286.015 71.5475 283.706 71.5475 286.015C71.5475 288.324 62.8978 280.82 62.8978 280.82C62.8978 280.82 54.2482 291.787 50.2117 289.479C46.1752 287.17 45.0219 283.706 47.3285 277.934C49.6351 272.162 54.2482 258.886 55.9781 255.999C57.7081 253.113 55.9781 247.918 59.438 240.992C62.8978 234.065 61.1679 231.756 70.3942 221.943C79.6205 212.13 81.9271 210.976 86.5402 206.935C91.1533 202.895 96.3431 202.895 95.7665 200.586C95.1898 198.277 109.606 203.472 110.759 200.586C111.912 197.7 102.686 193.659 111.912 190.196C121.139 186.732 129.212 186.155 130.365 182.115C131.518 178.074 136.131 175.765 141.321 174.033C146.511 172.302 152.854 171.147 155.737 174.033C158.621 176.92 169 173.456 168.424 170.57C167.847 167.684 173.613 175.765 174.19 175.765C174.767 175.765 179.956 171.725 179.956 171.725C179.956 171.725 177.65 174.033 179.956 181.537C182.263 189.041 177.073 190.773 179.956 195.391C182.84 200.009 197.832 204.626 200.716 204.626C203.599 204.626 208.212 200.586 208.212 203.472C208.212 206.358 211.095 210.399 211.095 212.13C211.095 213.862 210.518 221.943 211.095 222.52C211.672 223.098 211.672 234.065 211.095 236.951" stroke="#252525" stroke-width="2" stroke-miterlimit="10"/>
<path id="Vector_12" d="M487.907 272.837L403.717 274.471C403.717 274.471 401.41 268.121 391.031 276.202C380.651 284.284 355.279 279.089 355.279 279.089" stroke="#252525" stroke-width="2" stroke-miterlimit="10"/>
<path id="Vector_13" d="M168.423 169.993C168.423 169.993 165.54 167.107 166.117 160.18C166.694 153.253 165.54 134.782 168.423 131.319C171.307 127.855 177.073 126.124 175.92 120.929C174.767 115.734 160.35 104.766 160.35 104.766C160.35 104.766 158.044 103.035 160.35 98.417C162.657 93.7991 160.927 102.458 165.54 98.417C170.153 94.3764 167.847 87.4497 167.847 87.4497L170.73 82.2546L169.577 73.5963H163.81L171.307 58.0112C171.307 58.0112 170.73 50.5072 171.307 49.3528C171.883 48.1983 185.723 53.9706 188.029 48.1983C190.336 42.4261 185.146 36.0766 193.219 32.036H207.059V41.8488C207.059 41.8488 213.978 46.4666 213.978 47.0439C213.978 47.6211 254.92 59.7428 254.92 59.7428C254.92 59.7428 269.336 70.7101 271.066 75.9052L301.628 89.1813V94.3764C301.628 95.5308 306.818 103.612 306.818 103.612C306.818 103.612 305.088 115.156 305.088 115.734C305.088 116.311 303.935 133.05 292.978 147.481C282.022 161.912 280.869 159.603 272.796 177.497C272.796 177.497 268.183 180.383 267.606 187.887C267.606 187.887 267.606 196.545 258.956 196.545C258.956 196.545 255.497 199.431 261.263 201.163V208.667L279.716 209.821C279.716 209.821 284.559 214.878 284.732 219.565" stroke="#252525" stroke-width="2" stroke-miterlimit="10"/>
<path id="Vector_14" d="M42.427 185.359L64.0626 185.578C64.0626 185.578 69.2524 208.09 57.1429 214.439C57.1429 214.439 56.8027 227.479 61.3005 236.541" stroke="#252525" stroke-width="2" stroke-miterlimit="10"/>
<path id="Vector_15" d="M31.9263 427.147L54.8248 427.424C54.8248 427.424 57.708 425.115 59.438 425.115C61.1679 425.115 62.8978 434.351 61.1679 437.237C59.438 440.123 55.4015 440.123 55.4015 440.123C55.4015 440.123 57.1314 442.432 55.9781 444.163C54.8248 445.895 56.5547 449.359 61.7445 452.822C66.9343 456.285 69.8175 460.326 65.781 468.407C65.781 468.407 65.781 480.529 64.0511 482.838C62.3212 485.147 78.4672 487.455 79.0438 489.764L79.6205 492.073" stroke="#252525" stroke-width="2" stroke-miterlimit="10"/>
</g>
<g id="Cordillera">
<path id="Vector_16" d="M122.432 424.703C123.816 427.347 123.746 430.389 122.702 433.411C120.644 439.348 115.722 442.944 106.636 439.678C97.5497 436.413 95.9289 430.611 97.9298 424.838C98.9216 421.96 100.684 419.62 103.323 418.412C104.415 420.148 105.497 421.892 106.572 423.644C103.743 424.144 101.48 425.802 99.7779 430.656C99.237 432.176 100.282 433.375 102.914 434.253C104.973 434.918 107.108 435.316 109.268 435.439C114.289 435.805 119.17 435.026 121.329 428.725C121.761 427.421 122.069 426.035 122.432 424.703Z" fill="#444444"/>
<path id="Vector_17" d="M121.88 393.749C131.115 396.558 132.915 402.379 131.01 408.363C129.105 414.348 124.278 418.067 115.114 415.028C105.95 411.99 104.157 406.231 106.031 400.417C107.906 394.602 112.78 390.975 121.88 393.749ZM119.942 398.074C114.348 397.873 110.528 398.432 108.033 406.187C107.525 407.712 108.602 408.889 111.255 409.701C113.328 410.314 115.471 410.658 117.632 410.722C122.66 410.968 127.528 410.064 129.521 403.712C130.196 401.559 128.793 400.35 126.6 399.667C124.786 399.115 122.136 398.167 119.941 398.081L119.942 398.074Z" fill="#444444"/>
<path id="Vector_18" d="M142.335 368.372C142.214 369.457 142.012 370.532 141.73 371.587C141.516 372.597 141.056 373.538 140.389 374.327C139.094 375.568 128.246 378.835 126.112 379.421C128.83 380.214 131.549 381.003 134.27 381.788C135.701 382.161 137.211 382.101 138.609 381.616C137.888 384.099 137.169 386.575 136.428 389.054C135.564 387.852 134.327 386.969 132.91 386.541L116.554 381.71C115.137 381.305 113.627 381.362 112.244 381.875C113.237 378.521 114.209 375.161 115.16 371.794C115.16 371.794 116.994 365.305 122.114 366.726C127.234 368.147 127.69 371.91 127.527 374.177C130.121 373.509 139.536 370.849 142.335 368.372ZM121.669 371.396C118.145 370.404 116.778 375.067 116.778 375.067L116.343 376.567C119.178 377.387 122.008 378.207 124.833 379.029C124.986 378.523 125.132 378.019 125.271 377.515C125.271 377.515 126.585 372.786 121.669 371.396Z" fill="#444444"/>
<path id="Vector_19" d="M135.908 337.623C149.446 340.911 146.446 353.026 146.42 353.02C145.729 355.706 145.024 358.392 144.306 361.078C143.408 359.9 142.147 359.052 140.718 358.664L124.247 354.263C122.817 353.896 121.308 353.994 119.938 354.544C120.769 351.453 121.58 348.356 122.373 345.253C122.373 345.253 124.969 334.958 135.908 337.623ZM135.512 342.746C126.15 340.417 124.338 347.543 124.332 347.542L123.905 349.187C130.465 350.896 137.022 352.599 143.575 354.298L143.849 353.278C144.216 351.899 145.362 345.203 135.512 342.746Z" fill="#444444"/>
<path id="Vector_20" d="M148.81 325.864C150.26 326.121 151.753 325.983 153.131 325.464C152.601 327.853 152.031 330.24 151.468 332.623C150.538 331.472 149.255 330.66 147.816 330.311L131.264 326.401C129.816 326.063 128.297 326.203 126.936 326.8C127.483 324.475 128.024 322.149 128.558 319.822C129.582 320.877 130.864 321.646 132.276 322.053L148.81 325.864Z" fill="#444444"/>
<path id="Vector_21" d="M151.34 314.794C145.785 313.561 140.23 312.345 134.676 311.144C133.233 310.843 131.732 311.01 130.392 311.621C130.911 309.281 131.415 306.945 131.906 304.612C132.944 305.654 134.235 306.409 135.652 306.802C141.746 308.104 147.833 309.409 153.916 310.718C154.318 308.905 154.687 307.091 155.063 305.272C155.145 304.734 155.074 304.184 154.858 303.684L153.623 301.107C155.279 300.809 156.931 300.507 158.579 300.202C157.434 305.837 156.242 311.461 155.006 317.074C154.067 315.934 152.779 315.132 151.34 314.794V314.794Z" fill="#444444"/>
<path id="Vector_22" d="M156.353 290.516L139.605 287.269C138.157 286.995 136.658 287.196 135.334 287.844C135.794 285.493 136.24 283.146 136.686 280.799C137.749 281.815 139.061 282.535 140.489 282.886L158.83 286.364C159.18 284.539 159.516 282.718 159.852 280.897C159.92 280.355 159.835 279.804 159.607 279.308L158.316 276.765L163.258 275.742C162.246 281.406 161.189 287.06 160.087 292.703C159.117 291.583 157.804 290.814 156.353 290.516Z" fill="#444444"/>
<path id="Vector_23" d="M162.349 251.972C164.03 251.584 165.702 251.191 167.366 250.795C166.476 256.604 165.535 262.405 164.544 268.201C163.544 267.113 162.213 266.385 160.757 266.131C155.152 265.182 149.545 264.232 143.935 263.282C142.49 263.052 141.008 263.29 139.708 263.961C140.671 258.314 141.587 252.651 142.457 246.974L146.807 249.509L144.756 251.466C144.377 251.847 144.115 252.329 144 252.854C143.715 254.648 143.425 256.443 143.131 258.239C146.047 258.714 148.966 259.194 151.889 259.679L152.495 255.934C152.725 254.462 152.479 252.955 151.791 251.634C153.485 251.901 155.179 252.166 156.874 252.428C155.886 253.548 155.203 254.904 154.893 256.364L154.287 260.075L163.222 261.541L164.114 256.052C164.168 255.507 164.068 254.958 163.827 254.467L162.349 251.972Z" fill="#444444"/>
<path id="Vector_24" d="M171.472 221.384C171.51 222.476 171.465 223.57 171.338 224.656C171.271 225.686 170.952 226.684 170.408 227.561C169.306 228.975 159.036 233.769 157.005 234.657L165.411 235.842C166.877 236.002 168.358 235.723 169.666 235.04C169.315 237.598 168.954 240.157 168.581 242.715C167.547 241.655 166.197 240.959 164.734 240.733C159.108 239.938 153.483 239.129 147.859 238.307C146.395 238.105 144.904 238.379 143.608 239.09C144.109 235.628 144.595 232.162 145.066 228.692C145.066 228.692 145.951 222.006 151.219 222.672C156.486 223.338 157.486 227.005 157.643 229.268C160.129 228.202 169.071 224.214 171.472 221.384ZM151.458 227.352C147.827 226.873 147.173 231.721 147.166 231.72L146.953 233.262C149.876 233.666 152.795 234.072 155.713 234.479L155.929 232.923C155.929 232.923 156.526 227.994 151.463 227.326L151.458 227.352Z" fill="#444444"/>
<path id="Vector_25" d="M174.113 198.027C173.771 197.571 173.314 197.214 172.788 196.995C172.262 196.776 171.686 196.701 171.122 196.779C169.625 197.036 168.153 197.421 166.722 197.93C166.454 200.588 166.173 203.243 165.879 205.896C166.616 206.188 167.351 206.487 168.087 206.786C169.049 207.256 170.07 207.597 171.123 207.799C171.823 207.883 172.53 207.724 173.126 207.347C172.888 209.523 172.638 211.689 172.361 213.856C171.144 212.212 169.543 210.891 167.698 210.009C162.664 207.587 157.624 205.192 152.578 202.822C151.622 202.268 150.573 201.892 149.482 201.714C148.944 201.664 148.403 201.686 147.871 201.778C148.009 200.45 148.154 199.123 148.286 197.794C154.375 196.255 160.459 194.681 166.536 193.071C169.447 192.202 173.107 191.383 174.929 189.328C174.679 192.23 174.407 195.13 174.113 198.027ZM164.253 198.557C161.409 199.349 158.561 200.13 155.709 200.901C158.33 202.194 160.943 203.494 163.547 204.801C163.797 202.695 164.019 200.652 164.247 198.583L164.253 198.557Z" fill="#444444"/>
</g>
</g>
<g id="Kalinga_2">
<path id="Vector_26" d="M178.515 302.016C178.515 302.016 158.234 326.958 157.658 332.182C157.081 337.406 154.198 340.303 155.351 344.361C156.504 348.419 161.723 350.745 165.777 351.323C169.83 351.9 180.268 351.323 180.268 351.323L183.728 355.94C183.728 355.94 188.341 352.477 190.682 357.095C193.023 361.713 195.295 362.29 196.448 363.479C197.602 364.668 214.411 373.921 219.629 372.761C224.848 371.6 227.743 369.297 227.743 369.297C227.743 369.297 228.896 372.761 238.174 369.297C247.452 365.834 261.373 362.913 264.832 358.272C268.292 353.631 279.323 346.093 279.323 346.093L285.667 342.052C285.667 342.052 289.703 342.63 290.856 343.207C292.01 343.784 298.387 346.67 298.387 346.67L326.781 355.375L329.664 355.952C329.664 355.952 332.548 354.33 332.842 348.76C333.136 343.189 334.877 325.209 342.991 314.19C351.104 303.17 356.686 298.53 356.686 298.53L357.712 292.653L355.158 277.068C355.158 277.068 341.463 269.72 333.822 269.911C326.181 270.101 317.855 258.153 315.946 254.845C314.037 251.538 310.964 246.683 310.964 246.683L307.648 244.594C307.004 242.598 305.867 240.798 304.344 239.358C301.853 237.049 295.366 240.287 294.541 236.062C293.716 231.837 293.284 230.105 293.284 230.105L287.356 224.293L285.05 219.069C285.05 219.069 282.166 217.337 280.436 217.914C278.706 218.491 254.937 228.356 252.619 227.779C250.301 227.202 244.506 229.511 243.923 230.088C243.341 230.665 207.11 236.789 207.11 236.789C207.11 236.789 201.621 237.626 201.044 240.524C200.468 243.422 200.531 263.659 204.844 264.854C209.158 266.049 205.081 270.367 202.48 270.24C199.879 270.113 195.854 273.126 195.854 273.126L183.999 280.589L175.845 288.295L176.704 292.001C176.704 292.001 180.164 296.7 180.21 297.617C180.256 298.535 179.668 300.279 178.515 302.016Z" fill="#D18138"/>
</g>
</g>
<defs>
<clipPath id="clip0">
<rect width="581" height="635" fill="white"/>
</clipPath>
</defs>
</svg>
